<svg width="16" height="18" viewBox="0 0 16 18" fill="none" xmlns="http://www.w3.org/2000/svg">
<path d="M3.10625 1.5H2.375C1.87772 1.5 1.40081 1.69754 1.04917 2.04918C0.697544 2.40081 0.5 2.87772 0.5 3.375V15.875C0.5 16.3723 0.697544 16.8492 1.04917 17.2008C1.40081 17.5525 1.87772 17.75 2.375 17.75H5.64V16.5H2.375C2.20924 16.5 2.05027 16.4342 1.93306 16.3169C1.81585 16.1997 1.75 16.0408 1.75 15.875V3.375C1.75 3.20924 1.81585 3.05027 1.93306 2.93306C2.05027 2.81585 2.20924 2.75 2.375 2.75H3.10625C3.23555 3.11572 3.4751 3.43234 3.79189 3.65622C4.10867 3.88009 4.48709 4.0002 4.875 4H8.625C9.01291 4.0002 9.39133 3.88009 9.70811 3.65622C10.0249 3.43234 10.2644 3.11572 10.3938 2.75H11.125C11.2908 2.75 11.4497 2.81585 11.5669 2.93306C11.6842 3.05027 11.75 3.20924 11.75 3.375V5.25H13V3.375C13 2.87772 12.8025 2.40081 12.4508 2.04918C12.0992 1.69754 11.6223 1.5 11.125 1.5H10.3938C10.2644 1.13428 10.0249 0.817661 9.70811 0.593785C9.39133 0.36991 9.01291 0.249797 8.625 0.25H4.875C4.48709 0.249797 4.10867 0.36991 3.79189 0.593785C3.4751 0.817661 3.23555 1.13428 3.10625 1.5ZM4.25 2.125C4.25 1.95924 4.31585 1.80027 4.43306 1.68306C4.55027 1.56585 4.70924 1.5 4.875 1.5H8.625C8.79076 1.5 8.94973 1.56585 9.06694 1.68306C9.18415 1.80027 9.25 1.95924 9.25 2.125C9.25 2.29076 9.18415 2.44973 9.06694 2.56694C8.94973 2.68415 8.79076 2.75 8.625 2.75H4.875C4.70924 2.75 4.55027 2.68415 4.43306 2.56694C4.31585 2.44973 4.25 2.29076 4.25 2.125Z" fill="#18191F"/>
<path d="M8.625 6.5C8.12772 6.5 7.65081 6.69754 7.29917 7.04917C6.94754 7.40081 6.75 7.87772 6.75 8.375V15.875C6.75 16.3723 6.94754 16.8492 7.29917 17.2008C7.65081 17.5525 8.12772 17.75 8.625 17.75H13.625C14.1223 17.75 14.5992 17.5525 14.9508 17.2008C15.3025 16.8492 15.5 16.3723 15.5 15.875V8.375C15.5 7.87772 15.3025 7.40081 14.9508 7.04917C14.5992 6.69754 14.1223 6.5 13.625 6.5H8.625ZM8 8.375C8 8.20924 8.06585 8.05027 8.18306 7.93306C8.30027 7.81585 8.45924 7.75 8.625 7.75H13.625C13.7908 7.75 13.9497 7.81585 14.0669 7.93306C14.1842 8.05027 14.25 8.20924 14.25 8.375V15.875C14.25 16.0408 14.1842 16.1997 14.0669 16.3169C13.9497 16.4342 13.7908 16.5 13.625 16.5H8.625C8.45924 16.5 8.30027 16.4342 8.18306 16.3169C8.06585 16.1997 8 16.0408 8 15.875V8.375Z" fill="#18191F"/>
</svg>
