<svg width="19" height="17" viewBox="0 0 19 17" fill="none" xmlns="http://www.w3.org/2000/svg">
<path d="M9.25885 2.42182C8.34707 1.50574 7.10882 0.989232 5.81632 0.985856C4.52383 0.982481 3.2829 1.49251 2.36635 2.40382C1.45504 3.32037 0.945006 4.56131 0.948381 5.8538C0.951756 7.14629 1.46826 8.38454 2.38435 9.29632L9.44485 16.3583C9.58549 16.4989 9.77622 16.5779 9.9751 16.5779C10.174 16.5779 10.3647 16.4989 10.5053 16.3583L17.5298 9.33832C18.4407 8.42183 18.9504 7.18122 18.9471 5.8891C18.9437 4.59697 18.4275 3.35904 17.5118 2.44732C17.06 1.99273 16.523 1.63164 15.9316 1.38469C15.3401 1.13774 14.7058 1.00977 14.0648 1.0081C13.4239 1.00643 12.7889 1.13108 12.1962 1.37495C11.6034 1.61881 11.0645 1.97709 10.6103 2.42932L9.93985 3.10132L9.25885 2.42182ZM16.4663 8.27932L9.97735 14.7668L3.44485 8.23582C2.81043 7.6054 2.45218 6.74893 2.44881 5.85455C2.44543 4.96017 2.7972 4.10102 3.42685 3.46582C4.06171 2.83532 4.92096 2.48272 5.8157 2.48554C6.71045 2.48835 7.56746 2.84634 8.19835 3.48082L9.41335 4.69582C9.48399 4.76648 9.56804 4.82231 9.66056 4.86004C9.75309 4.89776 9.85221 4.91662 9.95212 4.9155C10.052 4.91438 10.1507 4.89331 10.2424 4.85353C10.334 4.81374 10.4168 4.75604 10.4858 4.68382L11.6708 3.48982C11.9858 3.17683 12.3593 2.92899 12.7701 2.76049C13.1809 2.59198 13.6208 2.5061 14.0648 2.50777C14.5088 2.50945 14.9481 2.59863 15.3576 2.77023C15.7671 2.94183 16.1388 3.19247 16.4513 3.50782C17.0858 4.13871 17.4438 4.99572 17.4466 5.89047C17.4494 6.78521 17.0968 7.64446 16.4663 8.27932Z" fill="white"/>
</svg>
