<svg width="19" height="13" viewBox="0 0 19 13" fill="none" xmlns="http://www.w3.org/2000/svg">
<path d="M1.69739 0.5C1.49848 0.5 1.30771 0.579018 1.16706 0.71967C1.02641 0.860322 0.947388 1.05109 0.947388 1.25C0.947388 1.44891 1.02641 1.63968 1.16706 1.78033C1.30771 1.92098 1.49848 2 1.69739 2H2.06639C2.22924 2.00028 2.38758 2.05357 2.51748 2.1518C2.64737 2.25003 2.74177 2.38788 2.78639 2.5445L5.16539 10.8695C5.29994 11.3393 5.5838 11.7525 5.97404 12.0467C6.36428 12.3409 6.83969 12.5 7.32839 12.5H14.1819C14.6317 12.5001 15.0711 12.3654 15.4436 12.1132C15.816 11.8611 16.1044 11.5031 16.2714 11.0855L18.4824 5.5565C18.5733 5.32899 18.6071 5.08268 18.5808 4.8391C18.5545 4.59551 18.469 4.36208 18.3316 4.15919C18.1943 3.9563 18.0094 3.79014 17.793 3.67523C17.5766 3.56032 17.3354 3.50015 17.0904 3.5H4.61939L4.22789 2.132C4.09368 1.66216 3.81016 1.24878 3.4202 0.954345C3.03024 0.65991 2.55502 0.500427 2.06639 0.5H1.69739ZM6.60839 10.4555L5.04839 5H17.0889L14.8779 10.529C14.8222 10.668 14.7261 10.7872 14.6021 10.8711C14.478 10.9551 14.3317 11 14.1819 11H7.32839C7.16553 10.9997 7.00719 10.9464 6.8773 10.8482C6.7474 10.75 6.65301 10.6121 6.60839 10.4555Z" fill="white"/>
</svg>
