<svg width="16" height="20" viewBox="0 0 16 20" fill="none" xmlns="http://www.w3.org/2000/svg">
<path d="M13.1974 10.5C13.7941 10.5 14.3664 10.7371 14.7884 11.159C15.2103 11.581 15.4474 12.1533 15.4474 12.75V13.5C15.4474 16.4565 12.6574 19.5 7.94739 19.5C3.23739 19.5 0.447388 16.4565 0.447388 13.5V12.75C0.447388 12.1533 0.684441 11.581 1.1064 11.159C1.52835 10.7371 2.10065 10.5 2.69739 10.5H13.1974ZM13.1974 12H2.69739C2.49848 12 2.30771 12.079 2.16706 12.2197C2.02641 12.3603 1.94739 12.5511 1.94739 12.75V13.5C1.94739 15.657 4.09539 18 7.94739 18C11.7994 18 13.9474 15.657 13.9474 13.5V12.75C13.9474 12.5511 13.8684 12.3603 13.7277 12.2197C13.5871 12.079 13.3963 12 13.1974 12ZM7.94739 0.75C9.04141 0.75 10.0906 1.1846 10.8642 1.95818C11.6378 2.73177 12.0724 3.78098 12.0724 4.875C12.0724 5.96902 11.6378 7.01823 10.8642 7.79182C10.0906 8.5654 9.04141 9 7.94739 9C6.85337 9 5.80416 8.5654 5.03057 7.79182C4.25698 7.01823 3.82239 5.96902 3.82239 4.875C3.82239 3.78098 4.25698 2.73177 5.03057 1.95818C5.80416 1.1846 6.85337 0.75 7.94739 0.75ZM7.94739 2.25C7.25119 2.25 6.58352 2.52656 6.09123 3.01884C5.59895 3.51113 5.32239 4.17881 5.32239 4.875C5.32239 5.57119 5.59895 6.23887 6.09123 6.73116C6.58352 7.22344 7.25119 7.5 7.94739 7.5C8.64358 7.5 9.31126 7.22344 9.80354 6.73116C10.2958 6.23887 10.5724 5.57119 10.5724 4.875C10.5724 4.17881 10.2958 3.51113 9.80354 3.01884C9.31126 2.52656 8.64358 2.25 7.94739 2.25Z" fill="white"/>
</svg>
